<?xml version="1.0" encoding="UTF-8" standalone="no"?>
<!DOCTYPE svg PUBLIC "-//W3C//DTD SVG 1.1//EN"
 "http://www.w3.org/Graphics/SVG/1.1/DTD/svg11.dtd">
<!-- Generated by graphviz version 2.36.0 (20140111.2315)
 -->
<!-- Title: graphname Pages: 1 -->
<svg width="972pt" height="404pt"
 viewBox="0.00 0.00 972.00 404.00" xmlns="http://www.w3.org/2000/svg" xmlns:xlink="http://www.w3.org/1999/xlink">
<g id="graph0" class="graph" transform="scale(1 1) rotate(0) translate(4 400)">
<title>graphname</title>
<polygon fill="white" stroke="none" points="-4,4 -4,-400 968,-400 968,4 -4,4"/>
<!-- X11 -->
<g id="node1" class="node"><title>X11</title>
<ellipse fill="none" stroke="black" cx="374" cy="-378" rx="27" ry="18"/>
<text text-anchor="middle" x="374" y="-374.3" font-family="Times,serif" font-size="14.00">X11</text>
</g>
<!-- Autotools -->
<g id="node5" class="node"><title>Autotools</title>
<ellipse fill="none" stroke="black" cx="46" cy="-306" rx="46.1964" ry="18"/>
<text text-anchor="middle" x="46" y="-302.3" font-family="Times,serif" font-size="14.00">Autotools</text>
</g>
<!-- X11&#45;&gt;Autotools -->
<g id="edge6" class="edge"><title>X11&#45;&gt;Autotools</title>
<path fill="none" stroke="blue" stroke-dasharray="1,5" d="M347.928,-372.834C299.259,-364.855 191.412,-346.221 102,-324 98.8277,-323.212 95.5684,-322.353 92.2939,-321.454"/>
<polygon fill="blue" stroke="blue" points="92.035,-321.38 85.1657,-323.574 80.4986,-318.077 87.3679,-315.883 92.035,-321.38"/>
</g>
<!-- Bison -->
<g id="node6" class="node"><title>Bison</title>
<ellipse fill="none" stroke="black" cx="143" cy="-306" rx="31.2735" ry="18"/>
<text text-anchor="middle" x="143" y="-302.3" font-family="Times,serif" font-size="14.00">Bison</text>
</g>
<!-- X11&#45;&gt;Bison -->
<g id="edge7" class="edge"><title>X11&#45;&gt;Bison</title>
<path fill="none" stroke="blue" stroke-dasharray="1,5" d="M349.283,-370.552C313.637,-361.109 245.834,-342.614 189,-324 186.097,-323.049 183.105,-322.031 180.105,-320.983"/>
<polygon fill="blue" stroke="blue" points="179.962,-320.932 172.963,-322.667 168.669,-316.873 175.669,-315.138 179.962,-320.932"/>
</g>
<!-- bzip2 -->
<g id="node8" class="node"><title>bzip2</title>
<ellipse fill="none" stroke="black" cx="262" cy="-18" rx="31.2965" ry="18"/>
<text text-anchor="middle" x="262" y="-14.3" font-family="Times,serif" font-size="14.00">bzip2</text>
</g>
<!-- X11&#45;&gt;bzip2 -->
<g id="edge4" class="edge"><title>X11&#45;&gt;bzip2</title>
<path fill="none" stroke="black" d="M347.106,-375.395C312.827,-371.847 254.167,-360.468 222,-324 195.245,-293.667 203,-275.447 203,-235 203,-235 203,-235 203,-161 203,-117.108 227.336,-71.0231 244.749,-43.6664"/>
<polygon fill="black" stroke="black" points="247.785,-45.4185 250.343,-35.1371 241.932,-41.5792 247.785,-45.4185"/>
</g>
<!-- fontconfig -->
<g id="node10" class="node"><title>fontconfig</title>
<ellipse fill="none" stroke="black" cx="279" cy="-306" rx="48.1437" ry="18"/>
<text text-anchor="middle" x="279" y="-302.3" font-family="Times,serif" font-size="14.00">fontconfig</text>
</g>
<!-- X11&#45;&gt;fontconfig -->
<g id="edge2" class="edge"><title>X11&#45;&gt;fontconfig</title>
<path fill="none" stroke="black" d="M356.576,-364.161C343.107,-354.237 324.158,-340.275 308.36,-328.634"/>
<polygon fill="black" stroke="black" points="310.089,-325.56 299.962,-322.446 305.936,-331.195 310.089,-325.56"/>
</g>
<!-- foss -->
<g id="node11" class="node"><title>foss</title>
<ellipse fill="none" stroke="black" cx="397" cy="-18" rx="27" ry="18"/>
<text text-anchor="middle" x="397" y="-14.3" font-family="Times,serif" font-size="14.00">foss</text>
</g>
<!-- X11&#45;&gt;foss -->
<g id="edge9" class="edge"><title>X11&#45;&gt;foss</title>
<path fill="none" stroke="black" d="M370.246,-360.049C364.709,-333.521 355,-280.517 355,-235 355,-235 355,-235 355,-161 355,-119.099 372.024,-72.994 384.395,-45.0218"/>
<polygon fill="black" stroke="black" points="387.737,-46.1288 388.702,-35.578 381.368,-43.224 387.737,-46.1288"/>
</g>
<!-- freetype -->
<g id="node12" class="node"><title>freetype</title>
<ellipse fill="none" stroke="black" cx="570" cy="-306" rx="39.9464" ry="18"/>
<text text-anchor="middle" x="570" y="-302.3" font-family="Times,serif" font-size="14.00">freetype</text>
</g>
<!-- X11&#45;&gt;freetype -->
<g id="edge1" class="edge"><title>X11&#45;&gt;freetype</title>
<path fill="none" stroke="black" d="M397.253,-368.695C429.947,-357.019 489.967,-335.583 529.933,-321.31"/>
<polygon fill="black" stroke="black" points="531.143,-324.594 539.383,-317.934 528.789,-318.002 531.143,-324.594"/>
</g>
<!-- gettext -->
<g id="node13" class="node"><title>gettext</title>
<ellipse fill="none" stroke="black" cx="457" cy="-306" rx="35.6194" ry="18"/>
<text text-anchor="middle" x="457" y="-302.3" font-family="Times,serif" font-size="14.00">gettext</text>
</g>
<!-- X11&#45;&gt;gettext -->
<g id="edge8" class="edge"><title>X11&#45;&gt;gettext</title>
<path fill="none" stroke="blue" stroke-dasharray="1,5" d="M390.398,-363.17C401.692,-353.645 416.96,-340.769 430.028,-329.748"/>
<polygon fill="blue" stroke="blue" points="430.317,-329.504 432.324,-322.578 439.49,-321.768 437.482,-328.694 430.317,-329.504"/>
</g>
<!-- pkg&#45;config -->
<g id="node17" class="node"><title>pkg&#45;config</title>
<ellipse fill="none" stroke="black" cx="842" cy="-18" rx="50.0684" ry="18"/>
<text text-anchor="middle" x="842" y="-14.3" font-family="Times,serif" font-size="14.00">pkg&#45;config</text>
</g>
<!-- X11&#45;&gt;pkg&#45;config -->
<g id="edge5" class="edge"><title>X11&#45;&gt;pkg&#45;config</title>
<path fill="none" stroke="black" d="M401.121,-375.592C508.626,-369.287 899,-339.217 899,-235 899,-235 899,-235 899,-161 899,-117.562 875.745,-71.6818 858.943,-44.2006"/>
<polygon fill="black" stroke="black" points="861.826,-42.2118 853.535,-35.6164 855.904,-45.943 861.826,-42.2118"/>
</g>
<!-- zlib -->
<g id="node18" class="node"><title>zlib</title>
<ellipse fill="none" stroke="black" cx="937" cy="-18" rx="27" ry="18"/>
<text text-anchor="middle" x="937" y="-14.3" font-family="Times,serif" font-size="14.00">zlib</text>
</g>
<!-- X11&#45;&gt;zlib -->
<g id="edge3" class="edge"><title>X11&#45;&gt;zlib</title>
<path fill="none" stroke="black" d="M400.868,-375.814C486.057,-371.75 749.092,-356.789 827,-324 884.963,-299.605 937,-297.887 937,-235 937,-235 937,-235 937,-161 937,-120.996 937,-74.6528 937,-46.0798"/>
<polygon fill="black" stroke="black" points="940.5,-46.0492 937,-36.0493 933.5,-46.0493 940.5,-46.0492"/>
</g>
<!-- HarfBuzz -->
<g id="node2" class="node"><title>HarfBuzz</title>
<ellipse fill="none" stroke="black" cx="608" cy="-234" rx="46.2191" ry="18"/>
<text text-anchor="middle" x="608" y="-230.3" font-family="Times,serif" font-size="14.00">HarfBuzz</text>
</g>
<!-- cairo -->
<g id="node3" class="node"><title>cairo</title>
<ellipse fill="none" stroke="black" cx="553" cy="-90" rx="28.3955" ry="18"/>
<text text-anchor="middle" x="553" y="-86.3" font-family="Times,serif" font-size="14.00">cairo</text>
</g>
<!-- HarfBuzz&#45;&gt;cairo -->
<g id="edge16" class="edge"><title>HarfBuzz&#45;&gt;cairo</title>
<path fill="none" stroke="blue" stroke-dasharray="1,5" d="M575.618,-221.187C557.517,-212.719 536.536,-199.354 526,-180 515.145,-160.059 524.36,-135.173 534.873,-116.79"/>
<polygon fill="blue" stroke="blue" points="534.906,-116.736 534.679,-109.529 541.244,-106.546 541.472,-113.754 534.906,-116.736"/>
</g>
<!-- GObject&#45;Introspection -->
<g id="node4" class="node"><title>GObject&#45;Introspection</title>
<ellipse fill="none" stroke="black" cx="627" cy="-162" rx="91.9385" ry="18"/>
<text text-anchor="middle" x="627" y="-158.3" font-family="Times,serif" font-size="14.00">GObject&#45;Introspection</text>
</g>
<!-- HarfBuzz&#45;&gt;GObject&#45;Introspection -->
<g id="edge14" class="edge"><title>HarfBuzz&#45;&gt;GObject&#45;Introspection</title>
<path fill="none" stroke="blue" stroke-dasharray="1,5" d="M612.599,-216.055C614.554,-208.854 616.89,-200.249 619.105,-192.086"/>
<polygon fill="blue" stroke="blue" points="619.168,-191.856 616.879,-185.018 622.311,-180.275 624.6,-187.114 619.168,-191.856"/>
</g>
<!-- GLib -->
<g id="node7" class="node"><title>GLib</title>
<ellipse fill="none" stroke="black" cx="737" cy="-18" rx="29.3479" ry="18"/>
<text text-anchor="middle" x="737" y="-14.3" font-family="Times,serif" font-size="14.00">GLib</text>
</g>
<!-- HarfBuzz&#45;&gt;GLib -->
<g id="edge11" class="edge"><title>HarfBuzz&#45;&gt;GLib</title>
<path fill="none" stroke="black" d="M649.583,-226.072C676.641,-219.226 710.115,-205.844 728,-180 755.6,-140.118 749.965,-80.4785 743.438,-46.0899"/>
<polygon fill="black" stroke="black" points="746.778,-44.9551 741.329,-35.869 739.923,-46.3701 746.778,-44.9551"/>
</g>
<!-- HarfBuzz&#45;&gt;foss -->
<g id="edge17" class="edge"><title>HarfBuzz&#45;&gt;foss</title>
<path fill="none" stroke="black" d="M578.986,-219.897C560.071,-210.483 535.548,-196.56 517,-180 471.124,-139.041 431.49,-78.0768 411.281,-44.1302"/>
<polygon fill="black" stroke="black" points="414.186,-42.1652 406.107,-35.311 408.148,-45.7074 414.186,-42.1652"/>
</g>
<!-- HarfBuzz&#45;&gt;freetype -->
<g id="edge12" class="edge"><title>HarfBuzz&#45;&gt;freetype</title>
<path fill="none" stroke="black" d="M604.527,-252.292C600.775,-260.829 595.289,-271.273 589.709,-280.607"/>
<polygon fill="black" stroke="black" points="586.722,-278.782 584.384,-289.116 592.655,-282.496 586.722,-278.782"/>
</g>
<!-- ragel -->
<g id="node16" class="node"><title>ragel</title>
<ellipse fill="none" stroke="black" cx="804" cy="-162" rx="28.3955" ry="18"/>
<text text-anchor="middle" x="804" y="-158.3" font-family="Times,serif" font-size="14.00">ragel</text>
</g>
<!-- HarfBuzz&#45;&gt;ragel -->
<g id="edge15" class="edge"><title>HarfBuzz&#45;&gt;ragel</title>
<path fill="none" stroke="blue" stroke-dasharray="1,5" d="M641.877,-221.731C672.98,-211.275 720.276,-195.096 761,-180 763.667,-179.011 766.42,-177.97 769.184,-176.911"/>
<polygon fill="blue" stroke="blue" points="769.232,-176.892 773.37,-170.987 780.413,-172.536 776.275,-178.441 769.232,-176.892"/>
</g>
<!-- HarfBuzz&#45;&gt;pkg&#45;config -->
<g id="edge13" class="edge"><title>HarfBuzz&#45;&gt;pkg&#45;config</title>
<path fill="none" stroke="black" d="M652.502,-229.331C713.39,-223.286 817.782,-208.907 841,-180 871.456,-142.08 860.973,-81.3296 851.132,-46.3019"/>
<polygon fill="black" stroke="black" points="854.363,-44.889 848.145,-36.3108 847.656,-46.8943 854.363,-44.889"/>
</g>
<!-- cairo&#45;&gt;X11 -->
<g id="edge26" class="edge"><title>cairo&#45;&gt;X11</title>
<path fill="none" stroke="black" d="M539.853,-106.496C531.153,-116.921 519.618,-131.071 510,-144 463.794,-206.114 449.152,-220.082 412,-288 400.895,-308.302 390.739,-332.521 383.726,-350.565"/>
<polygon fill="black" stroke="black" points="380.366,-349.554 380.072,-360.144 386.907,-352.048 380.366,-349.554"/>
</g>
<!-- cairo&#45;&gt;GLib -->
<g id="edge25" class="edge"><title>cairo&#45;&gt;GLib</title>
<path fill="none" stroke="black" d="M576.678,-79.992C608.706,-67.8075 666.042,-45.9947 702.762,-32.0252"/>
<polygon fill="black" stroke="black" points="704.432,-35.1347 712.534,-28.3076 701.943,-28.5921 704.432,-35.1347"/>
</g>
<!-- cairo&#45;&gt;bzip2 -->
<g id="edge19" class="edge"><title>cairo&#45;&gt;bzip2</title>
<path fill="none" stroke="black" d="M526.92,-82.7264C475.356,-70.3228 360.178,-42.6166 300.105,-28.1661"/>
<polygon fill="black" stroke="black" points="300.797,-24.7327 290.255,-25.7968 299.159,-31.5386 300.797,-24.7327"/>
</g>
<!-- expat -->
<g id="node9" class="node"><title>expat</title>
<ellipse fill="none" stroke="black" cx="566" cy="-18" rx="30.3206" ry="18"/>
<text text-anchor="middle" x="566" y="-14.3" font-family="Times,serif" font-size="14.00">expat</text>
</g>
<!-- cairo&#45;&gt;expat -->
<g id="edge24" class="edge"><title>cairo&#45;&gt;expat</title>
<path fill="none" stroke="black" d="M556.147,-72.055C557.579,-64.3456 559.309,-55.0269 560.918,-46.3642"/>
<polygon fill="black" stroke="black" points="564.407,-46.7463 562.792,-36.2753 557.525,-45.4681 564.407,-46.7463"/>
</g>
<!-- cairo&#45;&gt;foss -->
<g id="edge27" class="edge"><title>cairo&#45;&gt;foss</title>
<path fill="none" stroke="black" d="M529.918,-79.0116C505.699,-68.4831 466.559,-51.3316 433,-36 431.208,-35.1814 429.369,-34.3344 427.516,-33.4755"/>
<polygon fill="black" stroke="black" points="428.82,-30.2217 418.279,-29.1572 425.856,-36.563 428.82,-30.2217"/>
</g>
<!-- cairo&#45;&gt;freetype -->
<g id="edge22" class="edge"><title>cairo&#45;&gt;freetype</title>
<path fill="none" stroke="black" d="M539.25,-105.931C531.039,-115.9 521.381,-129.753 517,-144 512.297,-159.293 513.813,-164.321 517,-180 524.336,-216.094 542.462,-254.697 555.474,-279.298"/>
<polygon fill="black" stroke="black" points="552.514,-281.183 560.347,-288.316 558.672,-277.855 552.514,-281.183"/>
</g>
<!-- libpng -->
<g id="node14" class="node"><title>libpng</title>
<ellipse fill="none" stroke="black" cx="648" cy="-18" rx="33.1991" ry="18"/>
<text text-anchor="middle" x="648" y="-14.3" font-family="Times,serif" font-size="14.00">libpng</text>
</g>
<!-- cairo&#45;&gt;libpng -->
<g id="edge21" class="edge"><title>cairo&#45;&gt;libpng</title>
<path fill="none" stroke="black" d="M570.869,-75.8335C584.837,-65.5414 604.496,-51.0554 620.471,-39.2844"/>
<polygon fill="black" stroke="black" points="622.933,-41.8179 628.907,-33.0682 618.781,-36.1825 622.933,-41.8179"/>
</g>
<!-- pixman -->
<g id="node15" class="node"><title>pixman</title>
<ellipse fill="none" stroke="black" cx="480" cy="-18" rx="37.5442" ry="18"/>
<text text-anchor="middle" x="480" y="-14.3" font-family="Times,serif" font-size="14.00">pixman</text>
</g>
<!-- cairo&#45;&gt;pixman -->
<g id="edge23" class="edge"><title>cairo&#45;&gt;pixman</title>
<path fill="none" stroke="black" d="M537.874,-74.496C527.966,-64.9951 514.814,-52.3831 503.551,-41.5833"/>
<polygon fill="black" stroke="black" points="505.759,-38.8516 496.119,-34.4566 500.914,-43.9041 505.759,-38.8516"/>
</g>
<!-- cairo&#45;&gt;pkg&#45;config -->
<g id="edge18" class="edge"><title>cairo&#45;&gt;pkg&#45;config</title>
<path fill="none" stroke="black" d="M579.343,-82.838C620.947,-73.0777 704.397,-53.384 775,-36 780.673,-34.6031 786.612,-33.1226 792.51,-31.6409"/>
<polygon fill="black" stroke="black" points="793.503,-35.0001 802.344,-29.1607 791.791,-28.2127 793.503,-35.0001"/>
</g>
<!-- cairo&#45;&gt;zlib -->
<g id="edge20" class="edge"><title>cairo&#45;&gt;zlib</title>
<path fill="none" stroke="black" d="M581.126,-87.4804C641.113,-83.6442 785.556,-71.2257 901,-36 902.934,-35.41 904.895,-34.7328 906.854,-33.9962"/>
<polygon fill="black" stroke="black" points="908.612,-37.0534 916.468,-29.9451 905.894,-30.6026 908.612,-37.0534"/>
</g>
<!-- GObject&#45;Introspection&#45;&gt;cairo -->
<g id="edge28" class="edge"><title>GObject&#45;Introspection&#45;&gt;cairo</title>
<path fill="none" stroke="black" d="M609.087,-144.055C599.036,-134.548 586.398,-122.593 575.664,-112.439"/>
<polygon fill="black" stroke="black" points="577.919,-109.754 568.249,-105.424 573.108,-114.839 577.919,-109.754"/>
</g>
<!-- freetype&#45;&gt;HarfBuzz -->
<g id="edge10" class="edge"><title>freetype&#45;&gt;HarfBuzz</title>
<path fill="none" stroke="black" d="M573.321,-288.055C577.017,-279.592 582.459,-269.19 588.022,-259.845"/>
<polygon fill="black" stroke="black" points="591.024,-261.646 593.339,-251.307 585.082,-257.945 591.024,-261.646"/>
</g>
</g>
</svg>
