<?xml version="1.0" encoding="UTF-8" standalone="no"?>
<!DOCTYPE svg PUBLIC "-//W3C//DTD SVG 1.1//EN"
 "http://www.w3.org/Graphics/SVG/1.1/DTD/svg11.dtd">
<!-- Generated by graphviz version 2.36.0 (20140111.2315)
 -->
<!-- Title: graphname Pages: 1 -->
<svg width="895pt" height="404pt"
 viewBox="0.00 0.00 895.00 404.00" xmlns="http://www.w3.org/2000/svg" xmlns:xlink="http://www.w3.org/1999/xlink">
<g id="graph0" class="graph" transform="scale(1 1) rotate(0) translate(4 400)">
<title>graphname</title>
<polygon fill="white" stroke="none" points="-4,4 -4,-400 891,-400 891,4 -4,4"/>
<!-- X11 -->
<g id="node1" class="node"><title>X11</title>
<ellipse fill="none" stroke="black" cx="355" cy="-378" rx="27" ry="18"/>
<text text-anchor="middle" x="355" y="-374.3" font-family="Times,serif" font-size="14.00">X11</text>
</g>
<!-- Autotools -->
<g id="node5" class="node"><title>Autotools</title>
<ellipse fill="none" stroke="black" cx="46" cy="-306" rx="46.1964" ry="18"/>
<text text-anchor="middle" x="46" y="-302.3" font-family="Times,serif" font-size="14.00">Autotools</text>
</g>
<!-- X11&#45;&gt;Autotools -->
<g id="edge6" class="edge"><title>X11&#45;&gt;Autotools</title>
<path fill="none" stroke="blue" stroke-dasharray="1,5" d="M329.331,-372.398C283.432,-363.998 184.385,-345.09 102,-324 98.8779,-323.201 95.6699,-322.339 92.445,-321.441"/>
<polygon fill="blue" stroke="blue" points="92.3474,-321.413 85.474,-323.594 80.8171,-318.089 87.6905,-315.908 92.3474,-321.413"/>
</g>
<!-- Bison -->
<g id="node6" class="node"><title>Bison</title>
<ellipse fill="none" stroke="black" cx="143" cy="-306" rx="31.2735" ry="18"/>
<text text-anchor="middle" x="143" y="-302.3" font-family="Times,serif" font-size="14.00">Bison</text>
</g>
<!-- X11&#45;&gt;Bison -->
<g id="edge7" class="edge"><title>X11&#45;&gt;Bison</title>
<path fill="none" stroke="blue" stroke-dasharray="1,5" d="M330.973,-369.7C298.588,-359.777 239.202,-341.281 189,-324 186.112,-323.006 183.13,-321.956 180.137,-320.887"/>
<polygon fill="blue" stroke="blue" points="179.994,-320.835 172.988,-322.545 168.716,-316.735 175.721,-315.026 179.994,-320.835"/>
</g>
<!-- bzip2 -->
<g id="node8" class="node"><title>bzip2</title>
<ellipse fill="none" stroke="black" cx="159" cy="-18" rx="31.2965" ry="18"/>
<text text-anchor="middle" x="159" y="-14.3" font-family="Times,serif" font-size="14.00">bzip2</text>
</g>
<!-- X11&#45;&gt;bzip2 -->
<g id="edge4" class="edge"><title>X11&#45;&gt;bzip2</title>
<path fill="none" stroke="black" d="M331.136,-369.128C308.776,-360.787 275.513,-345.79 253,-324 220.399,-292.446 203,-280.37 203,-235 203,-235 203,-235 203,-161 203,-118.751 185.009,-72.4707 172.035,-44.5905"/>
<polygon fill="black" stroke="black" points="175.172,-43.0375 167.693,-35.5331 168.86,-46.0635 175.172,-43.0375"/>
</g>
<!-- fontconfig -->
<g id="node10" class="node"><title>fontconfig</title>
<ellipse fill="none" stroke="black" cx="393" cy="-306" rx="48.1437" ry="18"/>
<text text-anchor="middle" x="393" y="-302.3" font-family="Times,serif" font-size="14.00">fontconfig</text>
</g>
<!-- X11&#45;&gt;fontconfig -->
<g id="edge2" class="edge"><title>X11&#45;&gt;fontconfig</title>
<path fill="none" stroke="black" d="M363.813,-360.765C368.286,-352.525 373.828,-342.317 378.877,-333.016"/>
<polygon fill="black" stroke="black" points="382.009,-334.582 383.704,-324.124 375.857,-331.243 382.009,-334.582"/>
</g>
<!-- foss -->
<g id="node11" class="node"><title>foss</title>
<ellipse fill="none" stroke="black" cx="689" cy="-18" rx="27" ry="18"/>
<text text-anchor="middle" x="689" y="-14.3" font-family="Times,serif" font-size="14.00">foss</text>
</g>
<!-- X11&#45;&gt;foss -->
<g id="edge9" class="edge"><title>X11&#45;&gt;foss</title>
<path fill="none" stroke="black" d="M381.574,-374.094C475.324,-363.118 785,-320.399 785,-235 785,-235 785,-235 785,-161 785,-110.135 742.202,-63.8886 713.757,-38.7697"/>
<polygon fill="black" stroke="black" points="716.033,-36.1103 706.163,-32.2589 711.477,-41.4247 716.033,-36.1103"/>
</g>
<!-- freetype -->
<g id="node12" class="node"><title>freetype</title>
<ellipse fill="none" stroke="black" cx="774" cy="-18" rx="39.9464" ry="18"/>
<text text-anchor="middle" x="774" y="-14.3" font-family="Times,serif" font-size="14.00">freetype</text>
</g>
<!-- X11&#45;&gt;freetype -->
<g id="edge1" class="edge"><title>X11&#45;&gt;freetype</title>
<path fill="none" stroke="black" d="M382.38,-377.752C444.154,-378.445 597.936,-374.506 713,-324 770.584,-298.724 823,-297.887 823,-235 823,-235 823,-235 823,-161 823,-118.542 803.182,-72.6562 788.754,-44.8744"/>
<polygon fill="black" stroke="black" points="791.721,-43.0021 783.916,-35.8379 785.55,-46.306 791.721,-43.0021"/>
</g>
<!-- gettext -->
<g id="node13" class="node"><title>gettext</title>
<ellipse fill="none" stroke="black" cx="495" cy="-306" rx="35.6194" ry="18"/>
<text text-anchor="middle" x="495" y="-302.3" font-family="Times,serif" font-size="14.00">gettext</text>
</g>
<!-- X11&#45;&gt;gettext -->
<g id="edge8" class="edge"><title>X11&#45;&gt;gettext</title>
<path fill="none" stroke="blue" stroke-dasharray="1,5" d="M375.959,-366.52C398.02,-355.49 433.139,-337.93 459.526,-324.737"/>
<polygon fill="blue" stroke="blue" points="459.863,-324.568 463.441,-318.307 470.596,-319.202 467.019,-325.463 459.863,-324.568"/>
</g>
<!-- pkg&#45;config -->
<g id="node17" class="node"><title>pkg&#45;config</title>
<ellipse fill="none" stroke="black" cx="258" cy="-18" rx="50.0684" ry="18"/>
<text text-anchor="middle" x="258" y="-14.3" font-family="Times,serif" font-size="14.00">pkg&#45;config</text>
</g>
<!-- X11&#45;&gt;pkg&#45;config -->
<g id="edge5" class="edge"><title>X11&#45;&gt;pkg&#45;config</title>
<path fill="none" stroke="black" d="M335.661,-365.19C303.137,-343.674 241,-294.751 241,-235 241,-235 241,-235 241,-161 241,-120.71 247.83,-74.4436 252.832,-45.9649"/>
<polygon fill="black" stroke="black" points="256.304,-46.4343 254.641,-35.9707 249.416,-45.1872 256.304,-46.4343"/>
</g>
<!-- zlib -->
<g id="node18" class="node"><title>zlib</title>
<ellipse fill="none" stroke="black" cx="860" cy="-18" rx="27" ry="18"/>
<text text-anchor="middle" x="860" y="-14.3" font-family="Times,serif" font-size="14.00">zlib</text>
</g>
<!-- X11&#45;&gt;zlib -->
<g id="edge3" class="edge"><title>X11&#45;&gt;zlib</title>
<path fill="none" stroke="black" d="M381.846,-375.739C462.12,-371.629 699.016,-356.943 768,-324 819.626,-299.346 861,-292.211 861,-235 861,-235 861,-235 861,-161 861,-120.995 860.598,-74.6521 860.304,-46.0794"/>
<polygon fill="black" stroke="black" points="863.804,-46.0113 860.198,-36.049 856.804,-46.0856 863.804,-46.0113"/>
</g>
<!-- HarfBuzz -->
<g id="node2" class="node"><title>HarfBuzz</title>
<ellipse fill="none" stroke="black" cx="453" cy="-234" rx="46.2191" ry="18"/>
<text text-anchor="middle" x="453" y="-230.3" font-family="Times,serif" font-size="14.00">HarfBuzz</text>
</g>
<!-- cairo -->
<g id="node3" class="node"><title>cairo</title>
<ellipse fill="none" stroke="black" cx="477" cy="-90" rx="28.3955" ry="18"/>
<text text-anchor="middle" x="477" y="-86.3" font-family="Times,serif" font-size="14.00">cairo</text>
</g>
<!-- HarfBuzz&#45;&gt;cairo -->
<g id="edge16" class="edge"><title>HarfBuzz&#45;&gt;cairo</title>
<path fill="none" stroke="blue" stroke-dasharray="1,5" d="M436.111,-217.068C427.064,-207.341 416.814,-194.091 412,-180 406.827,-164.859 405.136,-158.453 412,-144 418.978,-129.306 432.245,-117.343 444.982,-108.526"/>
<polygon fill="blue" stroke="blue" points="445.294,-108.328 448.198,-101.727 455.408,-101.869 452.504,-108.47 445.294,-108.328"/>
</g>
<!-- GObject&#45;Introspection -->
<g id="node4" class="node"><title>GObject&#45;Introspection</title>
<ellipse fill="none" stroke="black" cx="513" cy="-162" rx="91.9385" ry="18"/>
<text text-anchor="middle" x="513" y="-158.3" font-family="Times,serif" font-size="14.00">GObject&#45;Introspection</text>
</g>
<!-- HarfBuzz&#45;&gt;GObject&#45;Introspection -->
<g id="edge14" class="edge"><title>HarfBuzz&#45;&gt;GObject&#45;Introspection</title>
<path fill="none" stroke="blue" stroke-dasharray="1,5" d="M466.916,-216.765C473.905,-208.611 482.546,-198.529 490.451,-189.307"/>
<polygon fill="blue" stroke="blue" points="490.513,-189.235 491.381,-182.076 498.322,-180.124 497.455,-187.283 490.513,-189.235"/>
</g>
<!-- GLib -->
<g id="node7" class="node"><title>GLib</title>
<ellipse fill="none" stroke="black" cx="356" cy="-18" rx="29.3479" ry="18"/>
<text text-anchor="middle" x="356" y="-14.3" font-family="Times,serif" font-size="14.00">GLib</text>
</g>
<!-- HarfBuzz&#45;&gt;GLib -->
<g id="edge11" class="edge"><title>HarfBuzz&#45;&gt;GLib</title>
<path fill="none" stroke="black" d="M434.526,-217.492C423.939,-207.714 411.173,-194.27 403,-180 378.188,-136.681 365.53,-79.1742 359.875,-45.912"/>
<polygon fill="black" stroke="black" points="363.326,-45.3282 358.278,-36.0132 356.415,-46.4429 363.326,-45.3282"/>
</g>
<!-- HarfBuzz&#45;&gt;foss -->
<g id="edge17" class="edge"><title>HarfBuzz&#45;&gt;foss</title>
<path fill="none" stroke="black" d="M496.689,-228.226C532.06,-222.299 581.223,-209.123 614,-180 654.422,-144.084 674.658,-81.8283 683.395,-46.1705"/>
<polygon fill="black" stroke="black" points="686.9,-46.5487 685.747,-36.0168 680.081,-44.9689 686.9,-46.5487"/>
</g>
<!-- HarfBuzz&#45;&gt;freetype -->
<g id="edge12" class="edge"><title>HarfBuzz&#45;&gt;freetype</title>
<path fill="none" stroke="black" d="M498.011,-229.905C566.917,-224.267 694.05,-210.021 727,-180 764.842,-145.522 772.874,-82.4651 774.193,-46.345"/>
<polygon fill="black" stroke="black" points="777.698,-46.134 774.413,-36.0616 770.7,-45.9846 777.698,-46.134"/>
</g>
<!-- ragel -->
<g id="node16" class="node"><title>ragel</title>
<ellipse fill="none" stroke="black" cx="690" cy="-162" rx="28.3955" ry="18"/>
<text text-anchor="middle" x="690" y="-158.3" font-family="Times,serif" font-size="14.00">ragel</text>
</g>
<!-- HarfBuzz&#45;&gt;ragel -->
<g id="edge15" class="edge"><title>HarfBuzz&#45;&gt;ragel</title>
<path fill="none" stroke="blue" stroke-dasharray="1,5" d="M491.287,-223.861C530.687,-214.15 593.669,-197.767 647,-180 649.763,-179.079 652.607,-178.078 655.453,-177.038"/>
<polygon fill="blue" stroke="blue" points="655.751,-176.924 659.931,-171.048 666.963,-172.647 662.783,-178.523 655.751,-176.924"/>
</g>
<!-- HarfBuzz&#45;&gt;pkg&#45;config -->
<g id="edge13" class="edge"><title>HarfBuzz&#45;&gt;pkg&#45;config</title>
<path fill="none" stroke="black" d="M429.999,-218.217C415.449,-208.308 396.684,-194.465 382,-180 338.119,-136.775 296.418,-77.6269 274.333,-44.3779"/>
<polygon fill="black" stroke="black" points="277.058,-42.1522 268.638,-35.7215 271.21,-45.9994 277.058,-42.1522"/>
</g>
<!-- cairo&#45;&gt;X11 -->
<g id="edge26" class="edge"><title>cairo&#45;&gt;X11</title>
<path fill="none" stroke="black" d="M455.911,-102.11C439.726,-111.5 417.728,-126.241 403,-144 357.939,-198.334 351.249,-219.078 336,-288 332.544,-303.622 333.26,-308.236 336,-324 337.588,-333.137 340.609,-342.781 343.782,-351.301"/>
<polygon fill="black" stroke="black" points="340.564,-352.681 347.501,-360.689 347.072,-350.103 340.564,-352.681"/>
</g>
<!-- cairo&#45;&gt;GLib -->
<g id="edge25" class="edge"><title>cairo&#45;&gt;GLib</title>
<path fill="none" stroke="black" d="M456.747,-77.2836C437.234,-65.9951 407.499,-48.7927 385.384,-35.9992"/>
<polygon fill="black" stroke="black" points="387.133,-32.9673 376.724,-30.9893 383.628,-39.0264 387.133,-32.9673"/>
</g>
<!-- cairo&#45;&gt;bzip2 -->
<g id="edge19" class="edge"><title>cairo&#45;&gt;bzip2</title>
<path fill="none" stroke="black" d="M449.303,-85.7133C398.767,-79.2797 288.552,-63.2244 199,-36 196.6,-35.2703 194.148,-34.4433 191.699,-33.5567"/>
<polygon fill="black" stroke="black" points="192.968,-30.2948 182.379,-29.9208 190.423,-36.8161 192.968,-30.2948"/>
</g>
<!-- expat -->
<g id="node9" class="node"><title>expat</title>
<ellipse fill="none" stroke="black" cx="528" cy="-18" rx="30.3206" ry="18"/>
<text text-anchor="middle" x="528" y="-14.3" font-family="Times,serif" font-size="14.00">expat</text>
</g>
<!-- cairo&#45;&gt;expat -->
<g id="edge24" class="edge"><title>cairo&#45;&gt;expat</title>
<path fill="none" stroke="black" d="M488.319,-73.4647C494.765,-64.6173 502.983,-53.3368 510.267,-43.3392"/>
<polygon fill="black" stroke="black" points="513.3,-45.1206 516.36,-34.9772 507.642,-40.9985 513.3,-45.1206"/>
</g>
<!-- cairo&#45;&gt;foss -->
<g id="edge27" class="edge"><title>cairo&#45;&gt;foss</title>
<path fill="none" stroke="black" d="M502.871,-82.3546C537.351,-73.2295 600.055,-55.6939 652,-36 654.095,-35.2059 656.237,-34.3479 658.385,-33.454"/>
<polygon fill="black" stroke="black" points="659.925,-36.6007 667.689,-29.3921 657.124,-30.1853 659.925,-36.6007"/>
</g>
<!-- cairo&#45;&gt;freetype -->
<g id="edge22" class="edge"><title>cairo&#45;&gt;freetype</title>
<path fill="none" stroke="black" d="M504.055,-84.3496C549.924,-76.214 645.7,-58.1385 725,-36 727.983,-35.1673 731.048,-34.2516 734.121,-33.2901"/>
<polygon fill="black" stroke="black" points="735.444,-36.54 743.864,-30.1092 733.271,-29.8856 735.444,-36.54"/>
</g>
<!-- libpng -->
<g id="node14" class="node"><title>libpng</title>
<ellipse fill="none" stroke="black" cx="610" cy="-18" rx="33.1991" ry="18"/>
<text text-anchor="middle" x="610" y="-14.3" font-family="Times,serif" font-size="14.00">libpng</text>
</g>
<!-- cairo&#45;&gt;libpng -->
<g id="edge21" class="edge"><title>cairo&#45;&gt;libpng</title>
<path fill="none" stroke="black" d="M498.074,-77.9083C519.508,-66.6276 553,-48.9998 577.768,-35.9645"/>
<polygon fill="black" stroke="black" points="579.57,-38.9709 586.789,-31.2162 576.31,-32.7765 579.57,-38.9709"/>
</g>
<!-- pixman -->
<g id="node15" class="node"><title>pixman</title>
<ellipse fill="none" stroke="black" cx="442" cy="-18" rx="37.5442" ry="18"/>
<text text-anchor="middle" x="442" y="-14.3" font-family="Times,serif" font-size="14.00">pixman</text>
</g>
<!-- cairo&#45;&gt;pixman -->
<g id="edge23" class="edge"><title>cairo&#45;&gt;pixman</title>
<path fill="none" stroke="black" d="M468.705,-72.411C464.625,-64.2493 459.61,-54.2203 455.033,-45.0653"/>
<polygon fill="black" stroke="black" points="458.081,-43.3352 450.478,-35.9562 451.82,-46.4658 458.081,-43.3352"/>
</g>
<!-- cairo&#45;&gt;pkg&#45;config -->
<g id="edge18" class="edge"><title>cairo&#45;&gt;pkg&#45;config</title>
<path fill="none" stroke="black" d="M452.304,-81.1062C416.349,-69.6138 348.963,-48.0751 303.779,-33.6325"/>
<polygon fill="black" stroke="black" points="304.803,-30.2855 294.212,-30.5747 302.672,-36.9532 304.803,-30.2855"/>
</g>
<!-- cairo&#45;&gt;zlib -->
<g id="edge20" class="edge"><title>cairo&#45;&gt;zlib</title>
<path fill="none" stroke="black" d="M505.39,-87.3318C565.25,-83.236 708.328,-70.3876 823,-36 825.285,-35.3147 827.611,-34.5146 829.927,-33.6419"/>
<polygon fill="black" stroke="black" points="831.377,-36.8295 839.263,-29.7537 828.686,-30.3676 831.377,-36.8295"/>
</g>
<!-- GObject&#45;Introspection&#45;&gt;cairo -->
<g id="edge28" class="edge"><title>GObject&#45;Introspection&#45;&gt;cairo</title>
<path fill="none" stroke="black" d="M504.285,-144.055C500.023,-135.767 494.803,-125.618 490.075,-116.424"/>
<polygon fill="black" stroke="black" points="493.073,-114.599 485.386,-107.307 486.847,-117.801 493.073,-114.599"/>
</g>
<!-- fontconfig&#45;&gt;HarfBuzz -->
<g id="edge10" class="edge"><title>fontconfig&#45;&gt;HarfBuzz</title>
<path fill="none" stroke="black" d="M406.916,-288.765C414.381,-280.056 423.731,-269.147 432.056,-259.435"/>
<polygon fill="black" stroke="black" points="434.892,-261.504 438.743,-251.633 429.577,-256.948 434.892,-261.504"/>
</g>
</g>
</svg>
